<svg width="4754" height="1627" viewBox="0 0 4754 1627" fill="none" xmlns="http://www.w3.org/2000/svg">
<path d="M924.449 1258.63V32.5908C924.449 20.5881 930.451 14.5614 942.479 14.5614H1034.43C1046.43 14.5614 1052.46 20.5881 1052.46 32.5908V764.605C1052.46 767.029 1053.64 768.833 1056.07 770.016C1058.46 771.228 1060.27 770.636 1061.48 768.212L1387.82 375.16C1393.82 367.947 1401.03 364.34 1409.46 364.34H1512.23C1519.44 364.34 1524.23 366.453 1526.65 370.652C1529.04 374.879 1527.83 379.979 1523.04 385.979L1317.5 642.004C1315.08 645.609 1314.49 648.625 1315.7 651.02L1559.1 1255.02L1560.91 1262.24C1560.91 1271.87 1555.5 1276.66 1544.68 1276.66H1449.12C1439.49 1276.66 1432.89 1271.87 1429.29 1262.24L1232.76 746.577C1231.55 744.183 1229.75 742.689 1227.35 742.069C1224.93 741.477 1223.13 742.379 1221.94 744.773L1056.07 944.908C1053.64 949.723 1052.46 952.739 1052.46 953.921V1258.63C1052.46 1270.66 1046.43 1276.66 1034.43 1276.66H942.479C930.451 1276.66 924.449 1270.66 924.449 1258.63Z" fill="#C07B49"/>
<path d="M1821.42 1201.83C1754.7 1142.33 1721.35 1062.72 1721.35 962.937V914.257C1721.35 902.254 1727.35 896.225 1739.38 896.225H1827.73C1839.73 896.225 1845.76 902.254 1845.76 914.257V955.724C1845.76 1023.05 1868.58 1077.14 1914.27 1117.99C1959.94 1158.87 2020.65 1179.3 2096.37 1179.3C2167.28 1179.3 2223.18 1160.08 2264.05 1121.6C2304.9 1083.14 2325.36 1032.66 2325.36 970.15C2325.36 929.3 2315.72 893.83 2296.51 863.773C2277.27 833.742 2249.01 806.077 2211.77 780.834C2174.5 755.593 2121 723.758 2051.3 685.274C1976.76 645.61 1918.16 610.761 1875.51 580.701C1832.82 550.669 1798.26 513.992 1771.84 470.717C1745.38 427.446 1732.17 374.568 1732.17 312.053C1732.17 214.693 1763.41 138.376 1825.93 83.0743C1888.41 27.801 1971.97 0.135656 2076.54 0.135656C2188.33 0.135656 2277.27 30.7877 2343.38 92.0903C2409.48 153.39 2442.55 234.525 2442.55 335.496V376.962C2442.55 388.99 2436.52 394.992 2424.52 394.992H2334.37C2322.34 394.992 2316.34 388.99 2316.34 376.962V337.296C2316.34 269.994 2294.7 215.594 2251.43 174.126C2208.16 132.656 2148.66 111.922 2072.93 111.922C2005.6 111.922 1953.04 129.36 1915.17 164.209C1877.31 199.088 1858.38 248.36 1858.38 312.053C1858.38 352.933 1867.39 387.19 1885.42 414.828C1903.46 442.489 1929.6 467.73 1963.85 490.553C1998.11 513.4 2050.68 544.052 2121.61 582.504C2203.34 628.198 2266.14 666.964 2310.03 698.798C2353.89 730.661 2388.74 767.31 2414.6 808.781C2440.43 850.249 2453.37 901.042 2453.37 961.134C2453.37 1062.1 2420.91 1142.33 2356.01 1201.83C2291.1 1261.33 2202.75 1291.08 2090.97 1291.08C1977.97 1291.08 1888.13 1261.33 1821.42 1201.83Z" fill="#C18F68"/>
<path d="M3033.93 465.311H2862.65C2857.83 465.311 2855.44 467.731 2855.44 472.52V1013.42C2855.44 1069.93 2866.54 1109.29 2888.79 1131.51C2911.02 1153.77 2946.77 1164.87 2996.07 1164.87H3026.72C3038.72 1164.87 3044.75 1170.9 3044.75 1182.9V1258.63C3044.75 1270.66 3038.72 1276.66 3026.72 1276.66L2970.83 1278.46C2892.68 1278.46 2833.18 1262.54 2792.33 1230.68C2751.45 1198.85 2731.03 1139.63 2731.03 1053.08V472.52C2731.03 467.731 2728.61 465.311 2723.82 465.311H2633.67C2621.64 465.311 2615.64 459.31 2615.64 447.279V382.372C2615.64 370.371 2621.64 364.34 2633.67 364.34H2723.82C2728.61 364.34 2731.03 361.945 2731.03 357.131V151.587C2731.03 139.588 2737.03 133.558 2749.06 133.558H2837.41C2849.41 133.558 2855.44 139.588 2855.44 151.587V357.131C2855.44 361.945 2857.83 364.34 2862.65 364.34H3033.93C3045.93 364.34 3051.96 370.371 3051.96 382.372V447.279C3051.96 459.31 3045.93 465.311 3033.93 465.311Z" fill="#C18F68"/>
<path d="M3425.32 509.483C3391.06 541.347 3370.92 583.124 3364.92 634.789C3362.5 685.273 3361.31 727.365 3361.31 760.999C3361.31 765.817 3363.71 768.212 3368.53 768.212H3748.96C3753.75 768.212 3756.17 765.817 3756.17 760.999C3756.17 726.153 3753.75 684.683 3748.96 636.593C3742.93 584.927 3722.81 542.839 3688.56 510.384C3654.3 477.929 3610.72 461.704 3557.84 461.704C3503.75 461.704 3459.58 477.648 3425.32 509.483ZM3681.35 1144.14C3714.39 1120.7 3738.14 1089.15 3752.56 1049.48C3756.17 1038.66 3763.38 1034.46 3774.2 1036.86L3857.14 1053.08C3863.14 1054.3 3867.05 1057 3868.86 1061.2C3870.66 1065.43 3870.94 1069.93 3869.76 1074.72C3849.31 1142.05 3812.06 1194.93 3757.97 1233.39C3703.88 1271.87 3638.36 1291.08 3561.44 1291.08C3473.69 1291.08 3402.16 1267.95 3346.89 1221.67C3291.59 1175.41 3257.33 1112.58 3244.12 1033.25C3239.3 1003.22 3236.29 967.755 3235.1 926.876C3233.89 886.029 3233.3 852.052 3233.3 825.007V768.212C3233.3 706.912 3235.7 657.045 3240.51 618.564C3250.12 538.049 3283.47 473.14 3340.58 423.84C3397.66 374.568 3469.49 349.917 3556.04 349.917C3648.58 349.917 3723.71 376.371 3781.41 429.249C3839.11 482.156 3871.56 551.852 3878.77 638.396C3882.38 678.064 3884.18 750.804 3884.18 856.56C3884.18 868.588 3878.15 874.588 3866.15 874.588H3368.53C3363.71 874.588 3361.31 877.012 3361.31 881.801C3361.31 919.071 3362.5 960.543 3364.92 1006.21C3370.92 1057.9 3391.65 1099.68 3427.12 1131.51C3462.56 1163.38 3507.95 1179.3 3563.25 1179.3C3608.92 1179.3 3648.27 1167.58 3681.35 1144.14Z" fill="#C18F68"/>
<path d="M4623.94 820.499C4623.94 724.35 4614.92 649.217 4596.89 595.126C4581.26 550.67 4559.62 517.006 4531.98 494.159C4504.32 471.338 4468.26 459.902 4423.8 459.902C4381.72 459.902 4347.77 471.338 4321.94 494.159C4296.07 517.006 4275.96 550.048 4261.54 593.323C4243.51 647.414 4234.49 723.138 4234.49 820.499C4234.49 920.283 4244.69 997.812 4265.14 1053.08C4279.57 1093.96 4298.78 1125.21 4322.84 1146.84C4346.87 1168.48 4379.32 1179.3 4420.2 1179.3C4499.53 1179.3 4556.02 1139.04 4589.68 1058.5C4612.5 997.195 4623.94 917.863 4623.94 820.499ZM4753.75 811.487C4753.75 893.239 4747.72 964.74 4735.73 1026.04C4716.48 1116.19 4682.54 1182.62 4633.86 1225.27C4585.17 1267.95 4520.55 1289.28 4440.03 1289.28C4390.73 1289.28 4350.16 1280.86 4318.33 1264.04C4286.47 1247.22 4260.92 1222.57 4241.7 1190.11C4240.49 1186.51 4238.69 1185.01 4236.3 1185.61C4233.87 1186.23 4232.69 1188.31 4232.69 1191.92V1608.41C4232.69 1620.41 4226.66 1626.44 4214.66 1626.44H4122.71C4110.68 1626.44 4104.68 1620.41 4104.68 1608.41V382.372C4104.68 370.371 4110.68 364.341 4122.71 364.341H4214.66C4226.66 364.341 4232.69 370.371 4232.69 382.372V450.885C4232.69 454.491 4233.87 456.605 4236.3 457.197C4238.69 457.817 4240.49 456.295 4241.7 452.689C4284.98 384.177 4354.08 349.918 4449.05 349.918C4524.78 349.918 4585.17 370.06 4630.25 410.319C4675.32 450.604 4708.68 515.203 4730.32 604.139C4745.92 667.866 4753.75 736.97 4753.75 811.487Z" fill="#C18F68"/>
<path d="M686.057 126.252H16.5851C8.60246 126.252 2.13184 121.244 2.13184 115.068V25.3004C2.13184 19.1231 8.60246 14.1151 16.5851 14.1151H686.057C694.04 14.1151 700.511 19.1231 700.511 25.3004V115.068C700.511 121.244 694.04 126.252 686.057 126.252Z" fill="#C07B49"/>
<path d="M686.057 1276.66H16.5851C8.60246 1276.66 2.13184 1271.65 2.13184 1265.48V1175.71C2.13184 1169.53 8.60246 1164.52 16.5851 1164.52H686.057C694.04 1164.52 700.511 1169.53 700.511 1175.71V1265.48C700.511 1271.65 694.04 1276.66 686.057 1276.66Z" fill="#C07B49"/>
<path d="M338.424 645.387C338.424 738.827 262.676 814.577 169.234 814.577C75.7943 814.577 0.0449219 738.827 0.0449219 645.387C0.0449219 551.946 75.7943 476.198 169.234 476.198C262.676 476.198 338.424 551.946 338.424 645.387Z" fill="#C18F68"/>
</svg>
