<svg xmlns="http://www.w3.org/2000/svg" viewBox="0 0 506.2 101.4"><defs><style>.cls-1{fill:#cc74a8}.cls-1,.cls-3,.cls-4{stroke-width:0}.cls-3{fill:#fff}.cls-4{fill:#231f20}</style></defs><path class="cls-3" d="M92.2 25.2h12.1v7.1c2.8-4.5 9.1-8.3 16.2-8.3 13.1 0 23.9 10.9 23.9 26.7s-10.6 26.7-24.3 26.7-12-2.8-15-6.9v25.7H92.2v-71Zm25.7 40.7c7.3 0 13.5-6.1 13.5-15.1s-6.2-15.1-13.5-15.1-13.5 6-13.5 15.1 6.1 15.1 13.5 15.1Zm83.2-17.8c0 1.9-.2 4.2-.4 5.7h-35.3c1 8.9 8.1 12.4 15.9 12.4s12.7-2.3 16.4-5.4v12.3c-5.6 3.5-12 4.3-18.1 4.3-16.4 0-27.6-10.5-27.6-26.6S162.3 24 177.6 24s23.5 10.8 23.5 24.1Zm-35.6-2.8h23.2c-.5-6.2-4.8-10.4-11.3-10.4s-10.8 4.1-11.9 10.4ZM240.6 24c11.8 0 19.8 7.9 19.8 21.2v31h-13V46.8c0-7.4-4.4-11.2-10.2-11.2-8.6 0-11.8 7.7-11.8 14.3v26.3h-13v-51h12.5v6.9c2.9-4.9 8-8.1 15.7-8.1Zm99.5-18.8v71h-11.2l-35.3-48v48h-13.2v-71h11.3l35.3 48v-48h13.1Zm13 78.4c2.7 1.5 5.4 1.7 7 1.7 5.1 0 7.5-2.7 9.9-8.3l1.1-2.6-20.9-50.3h13.9l13 35.7 12.7-35.7h13.5l-22.6 56.8c-3.9 9.8-8.9 15.4-19.1 15.4s-5.7-.3-8.5-1.6V83.6ZM45.4 5.2c-6.3 0-12.2 1.4-17.3 4l6.6 11.1c3.2-1.6 6.8-2.5 10.7-2.5 13.1 0 23.2 10.3 23.2 24.1S58.5 66 45.4 66 22.1 55.6 22.1 41.9s.6-6.5 1.7-9.3l-12.2-5.9c-2 4.6-3.1 9.7-3.1 15.2 0 20.7 15.7 36.7 36.8 36.7s36.9-16 36.9-36.7S66.4 5.2 45.4 5.2Z"></path><path d="M414.2 76.8h-13l23.7-60c2.5-6.3 7.1-8.7 14.2-8.7s11.6 2.4 14 8.7l22.8 60h-13.1l-20.5-54.3c-.6-1.6-1.7-2.3-3.3-2.3s-2.7.7-3.4 2.3l-21.4 54.3Z" style="fill:#d96eaa;stroke-width:0"></path><path class="cls-3" d="M497.7 5.1v71.7h-11.8V5.1h11.8Z"></path></svg>